<svg width="34" height="21" viewBox="0 0 34 21" fill="none" xmlns="http://www.w3.org/2000/svg">
<path d="M31.4548 0H21.8406C20.4349 0 19.2953 1.12992 19.2953 2.52374C19.2953 3.91757 20.4349 5.04749 21.8406 5.04749H25.3089L17.6325 12.6625C17.2994 12.9883 16.7641 12.9883 16.4311 12.6625L12.4232 8.68504C11.9458 8.2114 11.2982 7.94528 10.6229 7.94528C9.94756 7.94528 9.29992 8.2114 8.82255 8.68504L0.810159 16.6298C0.129214 17.2589 -0.151088 18.2065 0.0792175 19.1007C0.309523 19.9949 1.0137 20.6931 1.91551 20.9215C2.81731 21.1498 3.77291 20.8719 4.40742 20.1967L10.0239 14.6343C10.1825 14.4763 10.3981 14.3875 10.6229 14.3875C10.8477 14.3875 11.0633 14.4763 11.2219 14.6343L15.2331 18.6084C15.7099 19.0818 16.357 19.3479 17.0318 19.3479C17.7065 19.3479 18.3536 19.0818 18.8304 18.6084L28.9095 8.61438V12.0568C28.9095 13.4506 30.0491 14.5805 31.4548 14.5805C32.8605 14.5805 34 13.4506 34 12.0568V2.52374C34 1.12992 32.8605 0 31.4548 0Z" fill="#FF3366"/>
</svg>
