<svg width="26" height="26" viewBox="0 0 26 26" fill="none" xmlns="http://www.w3.org/2000/svg">
<path fill-rule="evenodd" clip-rule="evenodd" d="M1 13C1.07526 6.3078 6.44305 0.940234 13 1.0005C19.557 0.940234 24.9247 6.3078 25 13V13.9297C24.9706 15.8751 23.7528 17.5942 21.9521 18.2326C20.1514 18.871 18.1518 18.2924 16.9472 16.7845C15.9117 17.8747 14.4876 18.4898 13 18.4895C10.777 18.4896 8.77466 17.1176 7.93292 15.0176C7.09119 12.9177 7.5772 10.5067 9.16281 8.91643C10.7484 7.32618 13.1188 6.87245 15.1612 7.76824C17.2036 8.66402 18.5125 10.7314 18.4735 13V13.9297C18.5079 15.0235 19.3866 15.8921 20.4589 15.8921C21.5311 15.8921 22.4098 15.0235 22.4442 13.9297V13C22.3702 7.74797 18.1459 3.54758 13 3.60909C7.85407 3.54758 3.62984 7.74797 3.5558 13C3.62984 18.252 7.85407 22.4524 13 22.3909C14.9033 22.399 16.7656 21.8264 18.3478 20.7465C18.7269 20.4868 19.2129 20.4533 19.6228 20.6586C20.0326 20.8639 20.3041 21.2768 20.3348 21.7417C20.3656 22.2066 20.151 22.653 19.7719 22.9126C17.7686 24.2812 15.4106 25.0079 13 24.9995C6.44305 25.0598 1.07526 19.6922 1 13ZM10.269 12.936C10.235 14.5156 11.4528 15.8289 13 15.8809C14.5842 15.9053 15.8891 14.6169 15.9177 13C15.918 11.42 14.6723 10.1342 13.1244 10.1166C11.5765 10.0991 10.3031 11.3564 10.269 12.936Z" fill="#945FFD"/>
<path d="M13 1.0005L12.9986 1.15052L13.0014 1.1505L13 1.0005ZM1 13L0.849972 12.9983L0.850009 13.0017L1 13ZM25 13H25.15L25.15 12.9983L25 13ZM25 13.9297L25.15 13.932V13.9297H25ZM16.9472 16.7845L17.0644 16.6909L16.957 16.5564L16.8384 16.6812L16.9472 16.7845ZM13 18.4895L13 18.3395H13L13 18.4895ZM15.1612 7.76824L15.2214 7.63087L15.1612 7.76824ZM18.4735 13L18.3235 12.9974V13H18.4735ZM18.4735 13.9297H18.3234L18.3236 13.9344L18.4735 13.9297ZM22.4442 13.9297L22.5942 13.9344V13.9297H22.4442ZM22.4442 13H22.5942L22.5942 12.9979L22.4442 13ZM13 3.60909L12.9982 3.75912L13.0018 3.75908L13 3.60909ZM3.5558 13L3.40576 12.9979L3.40582 13.0021L3.5558 13ZM13 22.3909L13.0006 22.2409L12.9982 22.2409L13 22.3909ZM18.3478 20.7465L18.4323 20.8703L18.4325 20.8702L18.3478 20.7465ZM19.7719 22.9126L19.8565 23.0365L19.8566 23.0364L19.7719 22.9126ZM13 24.9995L13.0005 24.8495L12.9986 24.8495L13 24.9995ZM13 15.8809L12.995 16.0309L12.9977 16.0309L13 15.8809ZM10.269 12.936L10.1191 12.9328L10.269 12.936ZM15.9177 13L16.0677 13.0026V13L15.9177 13ZM13.1244 10.1166L13.1227 10.2666L13.1244 10.1166ZM13.0014 0.850509C6.35884 0.789454 0.926167 6.22629 0.850009 12.9983L1.14999 13.0017C1.22435 6.38931 6.52726 1.09101 12.9986 1.1505L13.0014 0.850509ZM25.15 12.9983C25.0738 6.22629 19.6412 0.789454 12.9986 0.850509L13.0014 1.1505C19.4727 1.09101 24.7756 6.38931 24.85 13.0017L25.15 12.9983ZM25.15 13.9297V13H24.85V13.9297H25.15ZM22.0023 18.374C23.8635 17.7141 25.1196 15.9385 25.15 13.932L24.85 13.9274C24.8215 15.8117 23.6422 17.4743 21.902 18.0912L22.0023 18.374ZM16.83 16.8782C18.074 18.4353 20.1405 19.034 22.0023 18.374L21.902 18.0912C20.1624 18.7079 18.2297 18.1495 17.0644 16.6909L16.83 16.8782ZM13 18.6395C14.5292 18.6398 15.9925 18.0074 17.0559 16.8878L16.8384 16.6812C15.831 17.7419 14.446 18.3398 13 18.3395L13 18.6395ZM7.79369 15.0735C8.6577 17.229 10.7143 18.6396 13 18.6395L13 18.3395C10.8397 18.3396 8.89162 17.0063 8.07215 14.9618L7.79369 15.0735ZM9.05659 8.81052C7.42822 10.4436 6.92986 12.9184 7.79369 15.0735L8.07215 14.9618C7.25251 12.917 7.72617 10.5697 9.26903 9.02234L9.05659 8.81052ZM15.2214 7.63087C13.1218 6.71 10.6855 7.17686 9.05659 8.81052L9.26903 9.02234C10.8114 7.4755 13.1157 7.03491 15.101 7.9056L15.2214 7.63087ZM18.6235 13.0026C18.6635 10.6749 17.3205 8.55149 15.2214 7.63087L15.101 7.9056C17.0867 8.77654 18.3615 10.7879 18.3235 12.9974L18.6235 13.0026ZM18.6235 13.9297V13H18.3235V13.9297H18.6235ZM20.4589 15.7421C19.4704 15.7421 18.6554 14.9406 18.6234 13.925L18.3236 13.9344C18.3604 15.1064 19.3029 16.0421 20.4589 16.0421V15.7421ZM22.2943 13.925C22.2623 14.9406 21.4473 15.7421 20.4589 15.7421V16.0421C21.6148 16.0421 22.5573 15.1064 22.5941 13.9344L22.2943 13.925ZM22.2942 13V13.9297H22.5942V13H22.2942ZM13.0018 3.75908C18.0621 3.69859 22.2213 7.8299 22.2942 13.0021L22.5942 12.9979C22.519 7.66604 18.2297 3.39656 12.9982 3.4591L13.0018 3.75908ZM3.70579 13.0021C3.7787 7.8299 7.93785 3.69859 12.9982 3.75908L13.0018 3.4591C7.77028 3.39656 3.48098 7.66604 3.40582 12.9979L3.70579 13.0021ZM12.9982 22.2409C7.93785 22.3014 3.7787 18.1701 3.70579 12.9979L3.40582 13.0021C3.48098 18.334 7.77028 22.6034 13.0018 22.5409L12.9982 22.2409ZM18.2632 20.6226C16.706 21.6855 14.8734 22.2489 13.0006 22.2409L12.9994 22.5409C14.9333 22.5491 16.8252 21.9673 18.4323 20.8703L18.2632 20.6226ZM19.69 20.5245C19.2312 20.2947 18.687 20.3323 18.263 20.6227L18.4325 20.8702C18.7668 20.6413 19.1946 20.6119 19.5556 20.7927L19.69 20.5245ZM20.4845 21.7318C20.4503 21.2148 20.1484 20.7541 19.69 20.5245L19.5556 20.7927C19.9169 20.9737 20.1578 21.3387 20.1852 21.7516L20.4845 21.7318ZM19.8566 23.0364C20.2802 22.7463 20.5187 22.2487 20.4845 21.7318L20.1852 21.7516C20.2125 22.1645 20.0217 22.5597 19.6871 22.7889L19.8566 23.0364ZM12.9995 25.1495C15.4406 25.158 17.8283 24.4221 19.8565 23.0365L19.6872 22.7888C17.7089 24.1403 15.3805 24.8578 13.0005 24.8495L12.9995 25.1495ZM0.850009 13.0017C0.926167 19.7737 6.35884 25.2105 13.0014 25.1495L12.9986 24.8495C6.52726 24.909 1.22435 19.6107 1.14999 12.9983L0.850009 13.0017ZM13.005 15.731C11.5428 15.6818 10.3866 14.4395 10.419 12.9392L10.1191 12.9328C10.0833 14.5916 11.3629 15.9759 12.995 16.0308L13.005 15.731ZM15.7677 12.9974C15.7406 14.5344 14.501 15.754 13.0023 15.7309L12.9977 16.0309C14.6675 16.0566 16.0377 14.6993 16.0677 13.0026L15.7677 12.9974ZM13.1227 10.2666C14.5856 10.2832 15.768 11.4993 15.7677 13L16.0677 13C16.068 11.3407 14.759 9.98516 13.1261 9.96665L13.1227 10.2666ZM10.419 12.9392C10.4514 11.439 11.6599 10.2501 13.1227 10.2666L13.1261 9.96665C11.4931 9.94815 10.1549 11.2738 10.1191 12.9328L10.419 12.9392Z" fill="white"/>
</svg>
