<svg width="31" height="31" viewBox="0 0 31 31" fill="none" xmlns="http://www.w3.org/2000/svg">
<path fill-rule="evenodd" clip-rule="evenodd" d="M0 15.5C0.0972107 6.85591 7.03061 -0.0771976 15.5 0.000649194C23.9694 -0.0771976 30.9028 6.85591 31 15.5V16.7009C30.962 19.2136 29.3891 21.4342 27.0632 22.2587C24.7373 23.0833 22.1544 22.336 20.5984 20.3884C19.261 21.7964 17.4215 22.591 15.5 22.5906C12.6286 22.5907 10.0423 20.8186 8.95503 18.1061C7.86778 15.3937 8.49555 12.2795 10.5436 10.2254C12.5917 8.17132 15.6534 7.58525 18.2915 8.7423C20.9297 9.89936 22.6203 12.5698 22.5699 15.5V16.7009C22.6144 18.1137 23.7494 19.2356 25.1343 19.2356C26.5193 19.2356 27.6543 18.1137 27.6988 16.7009V15.5C27.6031 8.71613 22.1468 3.29062 15.5 3.37007C8.85317 3.29062 3.39687 8.71613 3.30124 15.5C3.39687 22.2839 8.85317 27.7094 15.5 27.6299C17.9585 27.6404 20.3639 26.9007 22.4075 25.5058C22.8972 25.1705 23.525 25.1272 24.0544 25.3924C24.5838 25.6575 24.9344 26.1908 24.9742 26.7914C25.0139 27.3919 24.7367 27.9684 24.247 28.3038C21.6595 30.0715 18.6136 31.0102 15.5 30.9994C7.03061 31.0772 0.0972107 24.1441 0 15.5ZM11.9725 15.4173C11.9285 17.4576 13.5016 19.154 15.5 19.2212C17.5463 19.2527 19.2318 17.5885 19.2687 15.5C19.2691 13.4592 17.66 11.7983 15.6607 11.7757C13.6613 11.753 12.0165 13.377 11.9725 15.4173Z" fill="#FF3366"/>
</svg>
