<svg width="31" height="31" viewBox="0 0 31 31" fill="none" xmlns="http://www.w3.org/2000/svg">
<path d="M14.8467 16.1992C14.9689 16.0697 15.0218 15.8996 14.9918 15.733C14.9617 15.5663 14.8516 15.4193 14.6899 15.33C13.1315 14.4641 11.3299 14.0033 9.49032 14C5.12939 14.0176 1.2913 16.5525 0.0275118 20.2498C-0.0319676 20.4264 0.00618772 20.6174 0.130429 20.7652C0.254671 20.9129 0.450396 21 0.658366 21H11.9308C12.2501 21.0005 12.5239 20.7978 12.5801 20.5193C12.8977 18.9289 13.6791 17.4397 14.8467 16.1992Z" fill="#FF3366"/>
<path d="M3 6C3 8.14359 4.14359 10.1244 6 11.1962C7.85641 12.2679 10.1436 12.2679 12 11.1962C13.8564 10.1244 15 8.14359 15 6C15 3.85641 13.8564 1.87564 12 0.803848C10.1436 -0.267949 7.85641 -0.267949 6 0.803848C4.14359 1.87564 3 3.85641 3 6Z" fill="#FF3366"/>
<path fill-rule="evenodd" clip-rule="evenodd" d="M24.4556 14.2258C21.588 13.5517 18.576 14.4098 16.493 16.4942C14.41 18.5786 13.5522 21.5929 14.2253 24.4628C14.9418 27.6074 17.3947 30.0633 20.5365 30.7816C21.1757 30.9264 21.829 30.9996 22.4843 30.9999C25.0853 31.0073 27.5463 29.8213 29.1622 27.7816C30.7782 25.7418 31.371 23.0734 30.7707 20.5406C30.052 17.3967 27.5977 14.9424 24.4556 14.2258ZM20.1838 27.9275C19.9874 27.8398 19.8468 27.6611 19.8076 27.4495C19.7685 27.238 19.8359 27.0207 19.9878 26.8685L26.8607 19.9889C27.0128 19.8368 27.2299 19.7694 27.4413 19.8085C27.6527 19.8477 27.8313 19.9885 27.9189 20.185C28.8572 22.4003 28.3588 24.9639 26.6589 26.6654C24.959 28.367 22.3975 28.8662 20.1838 27.9275ZM24.8123 17.0812C22.5948 16.1959 20.065 16.6891 18.3418 18.3428C16.6133 20.0114 16.114 22.5845 17.0929 24.7792C17.175 24.9825 17.3536 25.1309 17.5683 25.1746C17.783 25.2183 18.0052 25.1513 18.1602 24.9963L25.0109 18.1415C25.1632 17.9889 25.2306 17.7709 25.1909 17.5589C25.1512 17.3469 25.0095 17.1682 24.8123 17.0812Z" fill="#FF3366"/>
</svg>
