<svg width="24" height="25" viewBox="0 0 24 25" fill="none" xmlns="http://www.w3.org/2000/svg">
<path fill-rule="evenodd" clip-rule="evenodd" d="M12.0002 -1.62235e-05C8.74116 -1.62235e-05 8.33251 0.0137977 7.05258 0.072197C5.77532 0.130454 4.903 0.333327 4.13971 0.629992C3.3506 0.936613 2.68139 1.34693 2.01423 2.01405C1.34712 2.68121 0.936796 3.35042 0.630175 4.13953C0.33351 4.90282 0.130637 5.77514 0.0723801 7.0524C0.0139808 8.33233 0.000166882 8.74098 0.000166882 12C0.000166882 15.259 0.0139808 15.6676 0.0723801 16.9476C0.130637 18.2248 0.33351 19.0972 0.630175 19.8604C0.936796 20.6495 1.34712 21.3188 2.01423 21.9859C2.68139 22.653 3.3506 23.0634 4.13971 23.37C4.903 23.6666 5.77532 23.8695 7.05258 23.9278C8.33251 23.9862 8.74116 24 12.0002 24C15.2592 24 15.6678 23.9862 16.9478 23.9278C18.225 23.8695 19.0973 23.6666 19.8606 23.37C20.6497 23.0634 21.3189 22.653 21.9861 21.9859C22.6532 21.3188 23.0635 20.6495 23.3702 19.8604C23.6668 19.0972 23.8697 18.2248 23.928 16.9476C23.9864 15.6676 24.0002 15.259 24.0002 12C24.0002 8.74098 23.9864 8.33233 23.928 7.0524C23.8697 5.77514 23.6668 4.90282 23.3702 4.13953C23.0635 3.35042 22.6532 2.68121 21.9861 2.01405C21.3189 1.34693 20.6497 0.936613 19.8606 0.629992C19.0973 0.333327 18.225 0.130454 16.9478 0.072197C15.6678 0.0137977 15.2592 -1.62235e-05 12.0002 -1.62235e-05ZM12.0002 2.16214C15.2043 2.16214 15.5838 2.17438 16.8492 2.23212C18.0192 2.28547 18.6546 2.48096 19.0774 2.64529C19.6376 2.86298 20.0373 3.12302 20.4572 3.54296C20.8771 3.96285 21.1372 4.3626 21.3549 4.92273C21.5192 5.34557 21.7147 5.98097 21.768 7.15095C21.8258 8.41631 21.838 8.79585 21.838 12C21.838 15.2041 21.8258 15.5837 21.768 16.849C21.7147 18.019 21.5192 18.6544 21.3549 19.0772C21.1372 19.6374 20.8771 20.0371 20.4572 20.457C20.0373 20.877 19.6376 21.137 19.0774 21.3547C18.6546 21.519 18.0192 21.7145 16.8492 21.7679C15.584 21.8256 15.2045 21.8378 12.0002 21.8378C8.7958 21.8378 8.41635 21.8256 7.15114 21.7679C5.98115 21.7145 5.34576 21.519 4.92291 21.3547C4.36278 21.137 3.96304 20.877 3.54314 20.457C3.12325 20.0371 2.86317 19.6374 2.64548 19.0772C2.48114 18.6544 2.28565 18.019 2.2323 16.849C2.17457 15.5837 2.16233 15.2041 2.16233 12C2.16233 8.79585 2.17457 8.41631 2.2323 7.15095C2.28565 5.98097 2.48114 5.34557 2.64548 4.92273C2.86317 4.3626 3.1232 3.96285 3.54314 3.54296C3.96304 3.12302 4.36278 2.86298 4.92291 2.64529C5.34576 2.48096 5.98115 2.28547 7.15114 2.23212C8.41649 2.17438 8.79604 2.16214 12.0002 2.16214ZM5.83801 12C5.83801 8.5967 8.59688 5.83783 12.0002 5.83783C15.4035 5.83783 18.1623 8.5967 18.1623 12C18.1623 15.4033 15.4035 18.1621 12.0002 18.1621C8.59688 18.1621 5.83801 15.4033 5.83801 12ZM12.0002 16C9.79102 16 8.00017 14.2091 8.00017 12C8.00017 9.79083 9.79102 7.99998 12.0002 7.99998C14.2093 7.99998 16.0002 9.79083 16.0002 12C16.0002 14.2091 14.2093 16 12.0002 16ZM18.4058 7.03435C19.2011 7.03435 19.8458 6.38967 19.8458 5.59437C19.8458 4.79907 19.2011 4.15434 18.4058 4.15434C17.6105 4.15434 16.9658 4.79907 16.9658 5.59437C16.9658 6.38967 17.6105 7.03435 18.4058 7.03435Z" fill="#945FFD"/>
</svg>
