<svg width="20" height="20" viewBox="0 0 20 20" fill="none" xmlns="http://www.w3.org/2000/svg">
<path fill-rule="evenodd" clip-rule="evenodd" d="M0 10C0 4.47715 4.47715 0 10 0C15.5202 0.00642897 19.9936 4.47982 20 10C20 15.5228 15.5228 20 10 20C4.47715 20 0 15.5228 0 10ZM10.0683 14.5742L15.7725 6.83333C15.9653 6.59465 16.0114 6.26931 15.8924 5.98648C15.7734 5.70364 15.5086 5.50908 15.2032 5.48003C14.8977 5.45099 14.601 5.59216 14.4308 5.8475L9.24167 12.89L5.845 10.1725C5.48555 9.88485 4.96098 9.94305 4.67333 10.3025C4.38568 10.6619 4.44389 11.1865 4.80333 11.4742L8.87667 14.7308C9.05473 14.87 9.28126 14.9318 9.50535 14.9024C9.72944 14.8729 9.93229 14.7547 10.0683 14.5742Z" fill="#945FFD"/>
</svg>
