<?xml version="1.0" encoding="UTF-8"?>
<svg width="31px" height="31px" viewBox="0 0 31 31" version="1.1" xmlns="http://www.w3.org/2000/svg" xmlns:xlink="http://www.w3.org/1999/xlink">
    <!-- Generator: Sketch 58 (84663) - https://sketch.com -->
    <title>Group 6</title>
    <desc>Created with Sketch.</desc>
    <defs>
        <polygon id="path-1" points="0.0036328125 0.0492851562 25.7436836 0.0492851562 25.7436836 25.7929687 0.0036328125 25.7929687"></polygon>
    </defs>
    <g id="Page-1" stroke="none" stroke-width="1" fill="none" fill-rule="evenodd">
        <g id="Home" transform="translate(-505.000000, -3759.000000)">
            <g id="Group-6" transform="translate(505.000000, 3759.000000)">
                <path d="M10.3236964,11 C8.25816204,12.5412233 6.68493284,14.4873607 6,15.4063299 C7.22733843,17.0529263 11.3026302,22 15.96179,22 C17.3842859,22 18.7508197,21.5358056 20,20.8483056 L18.509634,19.3314475 C17.7779942,19.8250936 16.9033336,20.1160943 15.96179,20.1160943 C13.4103057,20.1160943 11.3342823,18.0031684 11.3342823,15.4063299 C11.3342823,14.4480499 11.6202006,13.5578416 12.1052251,12.8131965 L10.3236964,11" id="Fill-1" fill="#FF3366"></path>
                <path d="M13,15.1997075 C13,16.743851 14.256149,18 15.8002925,18 C16.2313508,18 16.6349041,17.8940245 17,17.7193485 L13.2806515,14 C13.1059755,14.3650959 13,14.7686492 13,15.1997075" id="Fill-2" fill="#FF3366"></path>
                <path d="M9.99886638,9.01044952 C11.5937119,8.07021381 13.4034987,7.39909734 15.3456746,7.39909734 C21.8380615,7.39909734 26.9016854,14.8266292 27.1139972,15.1428336 C27.3217839,15.4518835 27.3217839,15.8567548 27.1139972,16.1658047 C26.9869281,16.3550014 25.1134845,19.0882035 22.2437286,21.2553441 L26.9883957,26 C29.5327739,23.1433981 31,19.5112362 31,15.6542886 C31,7.03745881 23.9650318,0 15.3456746,0 C11.4887179,0 7.85654749,1.46722266 5,4.0115949 L9.99886638,9.01044952" id="Fill-3" fill="#FF3366"></path>
                <g id="Group-7" transform="translate(0.000000, 5.000000)">
                    <mask id="mask-2" fill="white">
                        <use xlink:href="#path-1"></use>
                    </mask>
                    <g id="Clip-5"></g>
                    <path d="M18.2246094,10.2929688 C18.2246094,8.79055859 17.0024102,7.56835938 15.5,7.56835938 C15.0805918,7.56835938 14.6879453,7.6714707 14.3327168,7.84142578 L17.951543,11.460252 C18.121498,11.1050234 18.2246094,10.712377 18.2246094,10.2929688" id="Fill-4" fill="#FF3366" mask="url(#mask-2)"></path>
                    <path d="M20.7940977,16.8713262 C19.2149746,17.8022949 17.4230293,18.4667969 15.5,18.4667969 C9.07161719,18.4667969 4.05791211,11.1124707 3.84769336,10.7993828 C3.64195508,10.4933789 3.64195508,10.092498 3.84769336,9.78649414 C3.97350977,9.59916211 5.82848437,6.89289844 8.66994922,4.74711719 L3.97205664,0.0492851562 C1.45276172,2.87767188 0,6.47403516 0,10.2929687 C0,18.8248711 6.96561523,25.7929687 15.5,25.7929687 C19.3189336,25.7929687 22.9152969,24.340207 25.7436836,21.8209121 L20.7940977,16.8713262" id="Fill-6" fill="#FF3366" mask="url(#mask-2)"></path>
                </g>
                <path d="M25,15.5936701 C23.7726616,13.9470737 19.6973698,9 15.03821,9 C13.6157141,9 12.2491803,9.46419437 11,10.1516944 L12.490366,11.6685525 C13.2220058,11.1749064 14.0966664,10.8839057 15.03821,10.8839057 C17.5896943,10.8839057 19.6657177,12.9968316 19.6657177,15.5936701 C19.6657177,16.5519501 19.3797994,17.4421584 18.8947749,18.1868035 L20.6763036,20 C22.741838,18.4587139 24.3150055,16.5126393 25,15.5936701" id="Fill-8" fill="#FF3366"></path>
            </g>
        </g>
    </g>
</svg>