<svg width="24" height="24" viewBox="0 0 24 24" fill="none" xmlns="http://www.w3.org/2000/svg">
<path fill-rule="evenodd" clip-rule="evenodd" d="M19.978 4.97134e-06H4.02096C1.80362 -0.00324773 0.00338935 1.74343 0 3.90134V13.655C0 15.8098 1.80025 17.5563 3.77 17.5563H5.0759C7.60341 17.5563 9.82365 24.0004 12.1266 24.0004C14.2431 24.0004 16.4216 17.5563 18.685 17.5563H19.978C22.1956 17.5597 23.9962 15.8131 24 13.655V3.90134C23.9962 1.7432 22.1956 -0.00340046 19.978 4.97134e-06Z" fill="#945FFD"/>
<path fill-rule="evenodd" clip-rule="evenodd" d="M11.9986 4C10.5526 4 9.3804 5.22659 9.3804 6.73961C9.3804 8.25262 10.5527 9.47922 11.9986 9.47922C13.4444 9.47922 14.6167 8.25262 14.6167 6.73961C14.6167 5.22659 13.4445 4 11.9986 4ZM7.42204 13.5999C7.36488 13.6013 7.30958 13.5781 7.2684 13.5355C7.22723 13.4929 7.2036 13.4344 7.20275 13.373L7.19922 12.7372C7.19922 11.4435 7.86758 10.3921 9.10229 10.3921H14.8962C16.131 10.3921 16.7992 11.4431 16.7992 12.7353V13.3713C16.7985 13.4326 16.7751 13.4911 16.7342 13.5339C16.6933 13.5768 16.6382 13.6004 16.5811 13.5995H7.42166L7.42204 13.5999Z" fill="white"/>
</svg>
