<svg width="33" height="31" viewBox="0 0 33 31" fill="none" xmlns="http://www.w3.org/2000/svg">
<path fill-rule="evenodd" clip-rule="evenodd" d="M28.348 8.22042C25.1686 5.04079 20.0135 5.04079 16.8338 8.22042L12.2559 12.798L13.6953 14.2376C14.4902 15.0323 15.7789 15.0323 16.574 14.2376L20.5851 10.2265L29.1551 18.7965C31.5001 15.6105 31.2314 11.1031 28.348 8.22042Z" fill="#FF3366"/>
<path fill-rule="evenodd" clip-rule="evenodd" d="M28.9654 0.0612793L24.8516 4.17508C25.3692 4.29423 25.8781 4.45425 26.3755 4.65618C27.6244 5.16248 28.7442 5.90572 29.7039 6.86544C31.1365 8.298 32.0962 10.123 32.4718 12.0945L32.7037 11.8626V0.0612793H28.9654Z" fill="#FF3366"/>
<path fill-rule="evenodd" clip-rule="evenodd" d="M6.32613 4.65413C6.82349 4.45255 7.33252 4.29252 7.85049 4.17346L3.73831 0.0612793H0V11.8626L0.228923 12.0915C0.351986 11.4437 0.538582 10.809 0.788797 10.1919C1.29544 8.94303 2.03868 7.8232 2.99806 6.86348C3.95787 5.90401 5.07727 5.16086 6.32613 4.65413Z" fill="#FF3366"/>
<path fill-rule="evenodd" clip-rule="evenodd" d="M17.9284 15.5924C17.1822 16.3386 16.1898 16.7498 15.1343 16.7498C14.0786 16.7498 13.0863 16.3386 12.3401 15.5924L9.54566 12.7979L14.9306 7.41294C11.7446 5.06656 7.23624 5.33475 4.35256 8.21834C1.17284 11.3981 1.17284 16.5532 4.35256 19.7325L15.5587 30.9387L17.7597 28.7378L14.2357 25.2138L15.5907 23.8587L20.0742 28.3425L21.5978 26.8189L17.1143 22.3351L18.4693 20.9801L23.9125 26.4233L25.4362 24.8997L19.993 19.4564L21.348 18.1015L27.7507 24.5042L29.9516 22.3032L20.5848 12.936L17.9284 15.5924Z" fill="#FF3366"/>
</svg>
