<svg width="28" height="28" viewBox="0 0 28 28" fill="none" xmlns="http://www.w3.org/2000/svg">
<path fill-rule="evenodd" clip-rule="evenodd" d="M28 8.71244C28 9.87214 27.0598 10.8123 25.9 10.8123H21.6776L20.6136 17.1873H24.5C25.6598 17.1873 26.6 18.1274 26.6 19.2871C26.6 20.4468 25.6598 21.387 24.5 21.387H19.9136L19.1044 26.2445C18.9361 27.2566 18.0612 27.9988 17.0352 28C16.9189 27.999 16.8029 27.9897 16.688 27.972C15.5431 27.7807 14.7699 26.6979 14.9604 25.553L15.6548 21.387H9.338L8.5288 26.2445C8.35947 27.256 7.48516 27.9977 6.4596 28C6.34334 27.999 6.22731 27.9897 6.1124 27.972C5.56208 27.8808 5.07057 27.5746 4.74604 27.1209C4.4215 26.6673 4.29055 26.1032 4.382 25.553L5.0764 21.387H2.1C0.940202 21.387 0 20.4468 0 19.2871C0 18.1274 0.940202 17.1873 2.1 17.1873H5.7764L6.8404 10.8123H3.5C2.3402 10.8123 1.4 9.87214 1.4 8.71244C1.4 7.55274 2.3402 6.61262 3.5 6.61262H7.5404L8.3496 1.75504C8.5672 0.636802 9.63584 -0.104759 10.7596 0.0826483C11.8834 0.270056 12.6535 1.31826 12.4964 2.44658L11.802 6.61262H18.1188L18.928 1.75504C19.119 0.6108 20.2015 -0.16198 21.3458 0.0289833C22.4901 0.219947 23.263 1.30234 23.072 2.44658L22.3776 6.61262H25.9C27.0598 6.61262 28 7.55274 28 8.71244ZM10.038 17.1873H16.3548L17.4188 10.8123H11.102L10.038 17.1873Z" fill="#FF3366"/>
</svg>
