<svg width="29" height="31" viewBox="0 0 29 31" fill="none" xmlns="http://www.w3.org/2000/svg">
<path fill-rule="evenodd" clip-rule="evenodd" d="M26.3636 0.120966C26.9584 -0.0994685 27.6261 -0.0151999 28.1445 0.345709C28.68 0.710192 28.9996 1.30843 29 1.94733V15.5004C29 24.2228 17.4343 31 14.5 31C11.5657 31 0 24.2228 0 15.5004V1.94733C0.000430928 1.30843 0.319978 0.710192 0.8555 0.345709C1.37429 -0.0141036 2.04146 -0.0982995 2.63636 0.120966C7.84186 2.01966 21.1502 2.01966 26.3636 0.120966ZM5.43083 9.20479C5.25439 9.50523 5.25492 9.87508 5.43223 10.175H5.44014C6.08839 11.2714 7.28361 11.9464 8.57675 11.9464C9.86989 11.9464 11.0651 11.2714 11.7134 10.175C11.9875 9.71135 11.826 9.11774 11.3528 8.84917C10.8796 8.58059 10.2738 8.73875 9.99973 9.20243C9.68207 9.67049 9.14646 9.95176 8.5728 9.95176C7.99913 9.95176 7.46352 9.67049 7.14586 9.20243C6.96855 8.90248 6.64141 8.71801 6.28765 8.7185C5.9339 8.71898 5.60728 8.90436 5.43083 9.20479ZM9.22727 23.5731C8.68126 23.5731 8.23864 23.1394 8.23864 22.6044C8.23864 19.9333 11.0477 17.7608 14.5 17.7608C17.9523 17.7608 20.7614 19.9333 20.7614 22.6044C20.7614 23.1394 20.3187 23.5731 19.7727 23.5731H9.22727ZM20.4312 11.9464C21.7243 11.9464 22.9195 11.2714 23.5678 10.175H23.5757C23.8498 9.71135 23.6884 9.11774 23.2152 8.84917C22.742 8.58059 22.1361 8.73875 21.862 9.20243C21.5444 9.67049 21.0088 9.95176 20.4351 9.95176C19.8615 9.95176 19.3258 9.67049 19.0082 9.20243C18.7341 8.73875 18.1283 8.58059 17.6551 8.84917C17.1819 9.11774 17.0204 9.71135 17.2945 10.175C17.9428 11.2714 19.138 11.9464 20.4312 11.9464Z" fill="#FF3366"/>
</svg>
