<svg width="31" height="31" viewBox="0 0 31 31" fill="none" xmlns="http://www.w3.org/2000/svg">
<path fill-rule="evenodd" clip-rule="evenodd" d="M15.5 0C6.93959 0 0 6.93959 0 15.5C0 24.0604 6.93959 31 15.5 31C24.0604 31 31 24.0604 31 15.5C30.9907 6.94342 24.0566 0.0092546 15.5 0ZM15.5 24.5417C14.4299 24.5417 13.5625 23.6742 13.5625 22.6042C13.5625 21.5341 14.4299 20.6667 15.5 20.6667C16.5701 20.6667 17.4375 21.5341 17.4375 22.6042C17.4375 23.6742 16.5701 24.5417 15.5 24.5417ZM16.7917 17.8728C16.7914 17.359 17.0957 16.8939 17.5667 16.6883V16.6896C19.9317 15.6574 21.1725 13.0385 20.4734 10.5545C19.7743 8.07057 17.3497 6.48328 14.7934 6.83617C12.2372 7.18906 10.3333 9.3739 10.3333 11.9544C10.3333 12.6677 10.9116 13.246 11.625 13.246C12.3384 13.246 12.9167 12.6677 12.9167 11.9544C12.916 10.664 13.8676 9.57099 15.1459 9.3941C16.4241 9.21721 17.6368 10.0107 17.9866 11.2528C18.3364 12.4948 17.716 13.8045 16.5333 14.3207C15.121 14.9371 14.2081 16.3318 14.2083 17.8728C14.2083 18.5862 14.7866 19.1645 15.5 19.1645C16.2134 19.1645 16.7917 18.5862 16.7917 17.8728Z" fill="#FF3366"/>
</svg>
