<?xml version="1.0" encoding="UTF-8"?>
<svg width="500px" height="500px" viewBox="0 0 500 500" version="1.1" xmlns="http://www.w3.org/2000/svg" xmlns:xlink="http://www.w3.org/1999/xlink">
    <!-- Generator: Sketch 61 (89581) - https://sketch.com -->
    <title>menu-comprar-visualizacoes-stories-instagram</title>
    <desc>Created with Sketch.</desc>
    <defs>
        <radialGradient cx="10.2718705%" cy="79.4946652%" fx="10.2718705%" fy="79.4946652%" r="97.5857083%" id="radialGradient-1">
            <stop stop-color="#E96746" offset="0%"></stop>
            <stop stop-color="#804EA9" offset="100%"></stop>
        </radialGradient>
    </defs>
    <g id="Page-1" stroke="none" stroke-width="1" fill="none" fill-rule="evenodd">
        <g id="menu-comprar-comentarios-instagram" fill-rule="nonzero">
            <g id="Group">
                <circle id="Oval" fill="url(#radialGradient-1)" cx="250" cy="250" r="250"></circle>
                <circle id="Oval" fill="#FFFFFF" opacity="0.2" cx="250" cy="250" r="201"></circle>
            </g>
            <g id="iconfinder_eye_2625638" transform="translate(100.000000, 171.000000)" fill="#FFFFFF">
                <path d="M301.823047,80.354959 C301.941016,79.8836689 302,79.4712901 302,79 C302,78.5287099 301.882031,78.1163311 301.823047,77.645041 C301.764062,77.2326622 301.646094,76.7613721 301.469141,76.3489933 C301.292187,75.8777032 300.997266,75.4653244 300.702344,75.0529456 C300.525391,74.7583893 300.466406,74.463833 300.230469,74.2281879 C256.228125,24.9783743 207.742969,0 156.131641,0 C156.072656,0 155.954687,0 155.895703,0 C127.968747,0.0376669 102.416969,7.33051895 80.4892099,17.3340258 C33.8266727,38.6216098 3.57527104,72.1842196 1.76953125,74.2281879 C1.53359375,74.463833 1.47460938,74.8173005 1.29765625,75.0529456 C1.00273438,75.4653244 0.766796875,75.8777032 0.58984375,76.290082 C0.412890625,76.7024609 0.35390625,77.1737509 0.2359375,77.5861298 C0.11796875,78.1163311 0,78.5287099 0,79 C0,79.4712901 0.11796875,79.8836689 0.176953125,80.354959 C0.2359375,80.8262491 0.35390625,81.2386279 0.530859375,81.6510067 C0.7078125,82.1222968 1.00273437,82.4757644 1.23867187,82.8881432 C1.415625,83.1826995 1.53359375,83.4772558 1.71054687,83.7129008 C4.36484375,86.7173751 68.4808594,157.882177 155.895703,158 C155.954687,158 156.072656,158 156.131641,158 C207.742969,158 256.228125,133.021626 300.230469,83.7718121 C300.466406,83.536167 300.525391,83.1826995 300.702344,82.9470544 C300.997266,82.5346756 301.292187,82.1222968 301.469141,81.6510067 C301.646094,81.2386279 301.705078,80.8262491 301.823047,80.354959 Z M156.131641,143.684564 C156.072656,143.684564 156.072656,143.684564 156.013672,143.684564 C87.5917969,143.625652 32.7363281,94.5525727 17.1054688,79 C32.7363281,63.4474273 87.5328125,14.3743475 156.013672,14.3154362 C156.072656,14.3154362 156.072656,14.3154362 156.131641,14.3154362 C201.726562,14.3154362 245.021094,36.2304251 284.894531,79 C245.021094,121.769575 201.785547,143.684564 156.131641,143.684564 Z" id="XMLID_12_"></path>
                <path d="M151.5,26 C122.001105,26 98,49.8030973 98,79 C98,108.255531 122.001105,132 151.5,132 C180.998895,132 205,108.196903 205,79 C205,49.744469 180.998895,26 151.5,26 Z M165.924309,50.3893805 C173.845856,50.3893805 180.348619,56.7798673 180.348619,64.6946903 C180.348619,72.550885 173.904972,79 165.924309,79 C158.002762,79 151.5,72.6095133 151.5,64.6946903 C151.5,56.8384956 157.943646,50.3893805 165.924309,50.3893805 Z M151.5,117.753319 C129.981768,117.753319 112.424309,100.399336 112.424309,79 C112.424309,57.7765487 129.686188,40.539823 151.027072,40.3053097 C142.691713,45.3473451 137.075691,54.3174779 137.075691,64.6946903 C137.075691,80.465708 150.022099,93.3053097 165.924309,93.3053097 C176.387845,93.3053097 185.432597,87.7356195 190.516575,79.4103982 C190.28011,100.575221 172.9,117.753319 151.5,117.753319 Z" id="XMLID_15_"></path>
            </g>
        </g>
    </g>
</svg>