<?xml version="1.0" encoding="UTF-8"?>
<svg version="1.1" viewBox="0 0 500 500" xmlns="http://www.w3.org/2000/svg">
<title>menu-comprar-salvos-instagram</title>
<defs>
<radialGradient id="a" cx="10.272%" cy="79.495%" r="97.586%">
<stop stop-color="#E96746" offset="0"/>
<stop stop-color="#804EA9" offset="1"/>
</radialGradient>
</defs>
<g fill="none" fill-rule="evenodd">
<g fill-rule="nonzero">
<circle cx="250" cy="250" r="250" fill="url(#a)"/>
<circle cx="250" cy="250" r="201" fill="#fff" opacity=".2"/>
<path d="m315.95 143h-130.9c-15.465 0-28.05 12.582-28.05 28.043v177.61c0 3.5709 2.0383 6.8239 5.2454 8.3943 3.2164 1.5611 7.0312 1.1778 9.8456-1.0189l78.409-60.967 78.409 60.967c1.6736 1.3087 3.7026 1.9724 5.7409 1.9724 1.3932 0 2.805-0.31783 4.1046-0.95348 3.207-1.5704 5.2454-4.8235 5.2454-8.3943v-177.61c0-15.461-12.585-28.043-28.05-28.043zm9.05 187l-69.244-53.751c-1.6875-1.3192-3.7219-1.9742-5.7562-1.9742s-4.0688 0.65493-5.7562 1.9648l-69.244 53.761v-158.64c0-5.1553 4.2094-9.3562 9.375-9.3562h131.25c5.1656 0 9.375 4.2009 9.375 9.3562v158.64z" fill="#fff"/>
</g>
</g>
</svg>
