<?xml version="1.0" encoding="UTF-8"?>
<svg width="500px" height="500px" viewBox="0 0 500 500" version="1.1" xmlns="http://www.w3.org/2000/svg" xmlns:xlink="http://www.w3.org/1999/xlink">
    <title>menu-comprar-visualizacoes-reels-instagram</title>
    <defs>
        <radialGradient cx="10.2718705%" cy="79.4946652%" fx="10.2718705%" fy="79.4946652%" r="97.5857083%" id="radialGradient-1">
            <stop stop-color="#E96746" offset="0%"></stop>
            <stop stop-color="#804EA9" offset="100%"></stop>
        </radialGradient>
    </defs>
    <g id="Page-1" stroke="none" stroke-width="1" fill="none" fill-rule="evenodd">
        <g id="menu-comprar-visualizacoes-reels-instagram">
            <g id="Group" fill-rule="nonzero">
                <circle id="Oval" fill="url(#radialGradient-1)" cx="250" cy="250" r="250"></circle>
                <circle id="Oval" fill="#FFFFFF" opacity="0.2" cx="250" cy="250" r="201"></circle>
            </g>
            <g id="iconfinder_38-instagram_1161953" transform="translate(147.000000, 146.000000)">
                <path d="M191.225806,17.1935484 C180.322581,5.87096774 164.806452,0 147.193548,0 L60.8064516,0 C24.3225806,0 0,24.3225806 0,60.8064516 L0,146.774194 C0,164.806452 5.87096774,180.322581 17.6129032,191.645161 C28.9354839,202.548387 44.0322581,208 61.2258065,208 L146.774194,208 C164.806452,208 179.903226,202.129032 190.806452,191.645161 C202.129032,180.741935 208,165.225806 208,147.193548 L208,60.8064516 C208,43.1935484 202.129032,28.0967742 191.225806,17.1935484 Z M189.548387,147.193548 C189.548387,160.193548 184.935484,170.677419 177.387097,177.806452 C169.83871,184.935484 159.354839,188.709677 146.774194,188.709677 L61.2258065,188.709677 C48.6451613,188.709677 38.1612903,184.935484 30.6129032,177.806452 C23.0645161,170.258065 19.2903226,159.774194 19.2903226,146.774194 L19.2903226,60.8064516 C19.2903226,48.2258065 23.0645161,37.7419355 30.6129032,30.1935484 C37.7419355,23.0645161 48.6451613,19.2903226 61.2258065,19.2903226 L147.612903,19.2903226 C160.193548,19.2903226 170.677419,23.0645161 178.225806,30.6129032 C185.354839,38.1612903 189.548387,48.6451613 189.548387,60.8064516 L189.548387,147.193548 L189.548387,147.193548 Z" id="Shape" fill="#FFFFFF" fill-rule="nonzero"></path>
                <line x1="56.375" y1="14.3333333" x2="82.625" y2="57.6666667" id="Line-3" stroke="#FFFFFF" stroke-width="16" stroke-linecap="square"></line>
                <line x1="126.375" y1="14.3333333" x2="152.625" y2="57.6666667" id="Line-2" stroke="#FFFFFF" stroke-width="16" stroke-linecap="square"></line>
                <line x1="21.1449275" y1="65" x2="194.666667" y2="65" id="Line" stroke="#FFFFFF" stroke-width="16" stroke-linecap="square"></line>
                <path d="M104.767605,98.5078857 C105.758564,98.2510969 106.847484,98.3723461 107.799484,98.9324989 C108.304633,99.2297267 108.738292,99.6343338 109.069779,100.117693 L109.069779,100.117693 L142.756149,149.2377 C143.380866,150.148635 143.577212,151.226549 143.389644,152.232908 C143.202077,153.239266 142.630597,154.174071 141.719662,154.798788 C141.05364,155.255544 140.264958,155.5 139.457362,155.5 L139.457362,155.5 L76.8689661,155.5 C75.7643966,155.5 74.7643966,155.052285 74.040539,154.328427 C73.3166813,153.604569 72.8689661,152.604569 72.8689661,151.5 C72.8689661,150.786667 73.0597238,150.086311 73.4214717,149.471507 L73.4214717,149.471507 L102.323497,100.351501 C102.883649,99.3995014 103.776646,98.7646746 104.767605,98.5078857 Z" id="Triangle" stroke="#FFFFFF" fill="#FFFFFF" transform="translate(108.500000, 125.000000) rotate(-270.000000) translate(-108.500000, -125.000000) "></path>
            </g>
        </g>
    </g>
</svg>