<svg width="26" height="31" viewBox="0 0 26 31" fill="none" xmlns="http://www.w3.org/2000/svg">
<mask id="mask0" mask-type="alpha" maskUnits="userSpaceOnUse" x="0" y="0" width="26" height="31">
<path fill-rule="evenodd" clip-rule="evenodd" d="M0 0H25.8333V30.8013H0V0Z" fill="white"/>
</mask>
<g mask="url(#mask0)">
<path fill-rule="evenodd" clip-rule="evenodd" d="M12.9167 9.30005C9.62941 9.30005 6.95508 11.9744 6.95508 15.2615C6.95508 18.5488 9.62941 21.2231 12.9167 21.2231C16.2038 21.2231 18.8782 18.5488 18.8782 15.2615C18.8782 11.9744 16.2038 9.30005 12.9167 9.30005ZM16.4562 14.1388L12.1853 18.4096C12.0061 18.5889 11.7709 18.6787 11.536 18.6787C11.3012 18.6787 11.0662 18.5892 10.8869 18.4096L9.25486 16.7775C8.89632 16.4192 8.89632 15.838 9.25486 15.4794C9.61321 15.1209 10.1944 15.1209 10.553 15.4794L11.536 16.4625L15.158 12.8407C15.5163 12.4821 16.0976 12.4821 16.4562 12.8407C16.8147 13.199 16.8147 13.7803 16.4562 14.1388Z" fill="#FF3366"/>
<path fill-rule="evenodd" clip-rule="evenodd" d="M25.8032 8.35717L25.8023 8.33322C25.7891 8.03736 25.7803 7.7243 25.775 7.37604C25.7502 5.67776 24.4205 4.27293 22.7476 4.178C19.2597 3.98038 16.5614 2.82564 14.256 0.54406L14.2363 0.52505C13.4843 -0.175017 12.35 -0.175017 11.5977 0.52505L11.578 0.54406C9.27258 2.82564 6.57433 3.98038 3.08639 4.17825C1.41366 4.27293 0.0837688 5.67776 0.0590017 7.37628C0.0539061 7.72219 0.0448999 8.0352 0.0316869 8.33322L0.0303241 8.38887C-0.0375186 12.0001 -0.121774 16.4943 1.35909 20.5736C2.17333 22.8168 3.40646 24.7668 5.02408 26.3698C6.86644 28.1952 9.27951 29.6444 12.1963 30.677C12.2911 30.7106 12.3897 30.7378 12.4902 30.7583C12.6318 30.787 12.7744 30.8013 12.917 30.8013C13.0596 30.8013 13.2024 30.787 13.3438 30.7583C13.4442 30.7378 13.5435 30.7103 13.6389 30.6765C16.5521 29.642 18.9627 28.1921 20.8034 26.3669C22.4204 24.7636 23.6535 22.8131 24.4685 20.5694C25.9548 16.4779 25.8708 11.9752 25.8032 8.35717ZM12.9165 23.0772C8.74767 23.0772 5.35619 19.6338 5.35619 15.4011C5.35619 11.1684 8.74767 7.72502 12.9165 7.72502C17.0852 7.72502 20.4769 11.1684 20.4769 15.4011C20.4769 19.6338 17.0852 23.0772 12.9165 23.0772Z" fill="#FF3366"/>
</g>
</svg>
