<svg width="25" height="31" viewBox="0 0 25 31" fill="none" xmlns="http://www.w3.org/2000/svg">
<mask id="mask0" mask-type="alpha" maskUnits="userSpaceOnUse" x="0" y="0" width="25" height="22">
<path fill-rule="evenodd" clip-rule="evenodd" d="M0 0H24.9998V21.2374H0V0Z" fill="white"/>
</mask>
<g mask="url(#mask0)">
<path fill-rule="evenodd" clip-rule="evenodd" d="M12.5002 17.6979C16.4387 17.6979 19.643 14.5221 19.643 10.6188C19.643 6.71548 16.4387 3.53979 12.5002 3.53979C8.56177 3.53979 5.35742 6.71548 5.35742 10.6188C5.35742 14.5221 8.56177 17.6979 12.5002 17.6979Z" fill="#FF3366"/>
<path fill-rule="evenodd" clip-rule="evenodd" d="M24.9998 11.5037V9.73394C24.9998 8.36213 23.9407 7.24328 22.5923 7.10642C21.1351 3.03947 17.2434 0.0717955 12.6699 0.00112251C7.86542 -0.0667189 3.86708 2.94768 2.3975 7.10748C1.05387 7.24888 0 8.36543 0 9.73394V11.5037C0 12.9675 1.20155 14.1583 2.67857 14.1583H4.32821C3.84732 13.0724 3.57143 11.8785 3.57143 10.6188C3.57143 9.47084 3.80357 8.26497 4.32821 7.07928H4.32798C5.70333 3.95946 8.83762 1.72229 12.642 1.7709C17.5118 1.84641 21.4284 5.86108 21.4284 10.6188C21.4284 15.4123 17.4776 19.4676 12.4999 19.4676C12.0064 19.4676 11.607 19.8634 11.607 20.3525C11.607 20.8416 12.0064 21.2374 12.4999 21.2374C17.1649 21.2374 21.132 18.2626 22.5994 14.1305C23.9443 13.9904 24.9998 12.8731 24.9998 11.5037Z" fill="#FF3366"/>
</g>
<path fill-rule="evenodd" clip-rule="evenodd" d="M3.7041 27.8039C3.7041 29.3212 4.8878 30.5555 6.34296 30.5555H18.6578C20.1129 30.5555 21.2967 29.3212 21.2967 27.8039V24.9912C21.2967 23.3155 20.8456 21.6977 20.0846 20.3508C17.9915 22.0641 15.3617 23.0957 12.5004 23.0957C11.0453 23.0957 9.86151 21.8614 9.86151 20.3441C9.86151 19.8794 9.98296 19.4479 10.1788 19.0637C9.12279 18.7516 8.13789 18.2609 7.27708 17.5925C5.12155 19.2659 3.70416 21.9804 3.70416 24.9912V27.8039H3.7041Z" fill="#FF3366"/>
</svg>
