<svg width="21" height="31" viewBox="0 0 21 31" fill="none" xmlns="http://www.w3.org/2000/svg">
<path fill-rule="evenodd" clip-rule="evenodd" d="M19.3647 8.6991V15.1107C21.9352 19.1004 21.4348 24.2994 18.1489 27.7419C14.8629 31.1845 9.62689 31.9954 5.42749 29.712C1.22808 27.4287 -0.866978 22.6317 0.33735 18.0573C1.54168 13.483 5.73918 10.2942 10.5356 10.31C12.1369 10.3099 13.7165 10.6756 15.1502 11.3784C15.353 11.4774 15.5932 11.4661 15.7854 11.3486C15.9777 11.231 16.0946 11.024 16.0946 10.8011V8.6991C16.0946 5.67412 13.6058 3.22189 10.5356 3.22189C7.46538 3.22189 4.9765 5.67412 4.9765 8.6991C4.9765 9.5888 4.24448 10.31 3.34148 10.31C2.43849 10.31 1.70647 9.5888 1.70647 8.6991C1.70647 3.89472 5.65939 0 10.5356 0C15.4117 0 19.3647 3.89472 19.3647 8.6991ZM11.8436 24.4863V21.5544V21.5519C12.869 20.9686 13.3689 19.7794 13.0625 18.6526C12.756 17.5257 11.7196 16.7422 10.5356 16.7422C9.35154 16.7422 8.31512 17.5257 8.00868 18.6526C7.70223 19.7794 8.20215 20.9686 9.22755 21.5519V24.4863C9.22755 25.1981 9.81317 25.7751 10.5356 25.7751C11.258 25.7751 11.8436 25.1981 11.8436 24.4863Z" fill="#FF3366"/>
</svg>
