<svg width="34" height="34" viewBox="0 0 34 34" fill="none" xmlns="http://www.w3.org/2000/svg">
<path fill-rule="evenodd" clip-rule="evenodd" d="M33.6579 29.4438L19.6547 1.66762C19.1375 0.642376 18.1151 0 17.0007 0C15.8864 0 14.864 0.642376 14.3468 1.66762L0.342074 29.4438C-0.144476 30.4086 -0.110035 31.5674 0.432885 32.4992C0.975805 33.431 1.9482 34.0002 2.99679 34H31.0032C32.0518 34.0002 33.0242 33.431 33.5671 32.4992C34.11 31.5674 34.1445 30.4086 33.6579 29.4438ZM15.5019 11.429C15.5019 10.5696 16.1726 9.87287 17 9.87287C17.8274 9.87287 18.4981 10.5696 18.4981 11.429V20.7655C18.4981 21.6249 17.8274 22.3216 17 22.3216C16.1726 22.3216 15.5019 21.6249 15.5019 20.7655V11.429ZM17.033 29.3395H17.0749C17.6698 29.3295 18.2357 29.0708 18.6446 28.6218C19.0534 28.1728 19.2707 27.5716 19.2472 26.954C19.199 25.6801 18.1915 24.6728 16.964 24.6713H16.9221C16.3287 24.6825 15.7645 24.9411 15.3565 25.3889C14.9485 25.8367 14.731 26.436 14.7528 27.0521C14.7994 28.3263 15.8053 29.3354 17.033 29.3395Z" fill="#FFDF7E"/>
</svg>
