<svg width="251" height="92" viewBox="0 0 251 92" fill="none" xmlns="http://www.w3.org/2000/svg">
<g id="shares-chart">
<path id="line_1" d="M1 90.0044C14.6779 90.0044 14.6779 69.7505 28.3558 69.7505C42.0337 69.7505 42.0337 66.6166 55.7115 66.6166C69.3894 66.6166 69.3894 59.8383 83.0673 59.8383C96.7452 59.8383 96.7452 58.3521 110.423 58.3521C124.101 58.3521 124.101 51.6997 137.779 51.6997C151.457 51.6997 151.457 28.864 165.135 28.864C178.813 28.864 178.813 35.4297 192.49 35.4297C206.168 35.4297 206.168 15.3792 219.846 15.3792C231.069 15.3792 233.083 8.47776 241 6" stroke="#945FFD" stroke-width="2" stroke-linecap="round"/>
<circle id="endPoint_1" cx="246" cy="5" r="4" stroke="#945FFD" stroke-width="2"/>
</g>
</svg>
