<svg width="242" height="44" viewBox="0 0 242 44" fill="none" xmlns="http://www.w3.org/2000/svg">
<circle cx="15" cy="14.9999" r="15" fill="#EEEEEE"/>
<path fill-rule="evenodd" clip-rule="evenodd" d="M42 13.9999C42 9.58166 45.5817 5.99994 50 5.99994H234C238.418 5.99994 242 9.58166 242 13.9999V13.9999C242 18.4182 238.418 21.9999 234 21.9999H50C45.5817 21.9999 42 18.4182 42 13.9999V13.9999Z" fill="#EEEEEE"/>
<path fill-rule="evenodd" clip-rule="evenodd" d="M42 35.9999C42 31.5817 45.5817 27.9999 50 27.9999H154C158.418 27.9999 162 31.5817 162 35.9999V35.9999C162 40.4182 158.418 43.9999 154 43.9999H50C45.5817 43.9999 42 40.4182 42 35.9999V35.9999Z" fill="#EEEEEE"/>
</svg>
