<?xml version="1.0" encoding="utf-8"?>
<svg viewBox="0 0 439 439" xmlns="http://www.w3.org/2000/svg">
  <path d="M430.986,170.46c-1.728-5.317-6.324-9.192-11.857-9.996l-129.106-18.761l-57.736-116.99 c-2.475-5.014-7.581-8.188-13.172-8.188s-10.697,3.174-13.171,8.188l-57.74,116.991L19.097,160.464 c-5.533,0.804-10.129,4.679-11.857,9.996c-1.728,5.318-0.287,11.154,3.716,15.057l93.423,91.065L82.324,405.167 c-0.945,5.511,1.32,11.08,5.844,14.366c4.523,3.286,10.521,3.72,15.469,1.118l115.478-60.709l115.476,60.709 c2.149,1.13,4.496,1.688,6.834,1.688c3.045,0,6.076-0.946,8.635-2.806c4.523-3.286,6.789-8.855,5.844-14.366l-22.055-128.585 l93.422-91.065C431.273,181.614,432.714,175.778,430.986,170.46z" style="fill: rgb(255, 235, 91);"/>
</svg>